# xmcd CD database file
#
# Track frame offsets:
#	150
#	37070
#	63731
#	94310
#	132166
#	163279
#
# Disc length: 2541 seconds
#
# Revision: 7
# Processed by: cddbd v1.5.1PL2 Copyright (c) Steve Scherf et al.
# Submitted via: CDex 1.51
#
DISCID=5809eb06
DTITLE=Wayne Shorter - Speak No Evil
DYEAR=1964
DGENRE=Jazz
TTITLE0=Witch Hunt
TTITLE1=Fee-Fi-Fo-Fum
TTITLE2=Dance Cadaverous
TTITLE3=Speak No Evil
TTITLE4=Infant Eyes
TTITLE5=Wild Flower
EXTD=Blue Note CDP 7 46509 2\n\nRecorded December 24, 1964\nby Rudy Van Gelder\n\nFreddie Hubbard - trumpet\nWayne Shorter - tenor sax\nHerbie Hancock - piano\nRon Carter - bass\nElvin Jones - drum YEAR: 1964
EXTT0=Wayne Shorter
EXTT1=Wayne Shorter
EXTT2=Wayne Shorter
EXTT3=Wayne Shorter
EXTT4=Wayne Shorter
EXTT5=Wayne Shorter
PLAYORDER=
